<svg width="134" height="134" viewBox="0 0 134 134" fill="none" xmlns="http://www.w3.org/2000/svg">
<path d="M33.6667 122.222H117V111.111H33.7333C31.1667 111.044 28.1111 110.028 28.1111 105.556C28.1111 101.083 31.1667 100.067 33.7333 100H117V22.2222C117 16.0944 112.017 11.1111 105.889 11.1111H33.6667C26.9667 11.1111 17 15.55 17 27.7778V105.556C17 117.783 26.9667 122.222 33.6667 122.222ZM28.1111 44.4444V27.7778C28.1111 23.3055 31.1667 22.2889 33.6667 22.2222H105.889V88.8889H28.1111V44.4444Z" fill="#435AD5"/>
<path d="M44.7773 33.3333H94.7773V44.4444H44.7773V33.3333Z" fill="#435AD5"/>
</svg>
