<svg width="134" height="134" viewBox="0 0 134 134" fill="none" xmlns="http://www.w3.org/2000/svg">
<path d="M66.9999 11.1113C36.3666 11.1113 11.4443 36.0335 11.4443 66.6669C11.4443 97.3002 36.3666 122.222 66.9999 122.222C97.6332 122.222 122.555 97.3002 122.555 66.6669C122.555 36.0335 97.6332 11.1113 66.9999 11.1113ZM66.9999 111.111C42.4943 111.111 22.5554 91.1724 22.5554 66.6669C22.5554 42.1613 42.4943 22.2224 66.9999 22.2224C91.5054 22.2224 111.444 42.1613 111.444 66.6669C111.444 91.1724 91.5054 111.111 66.9999 111.111Z" fill="#435AD5"/>
<path d="M44.7773 88.889L78.0607 77.7779L89.2218 44.4446L55.8885 55.5557L44.7773 88.889Z" fill="#435AD5"/>
</svg>
