<svg width="134" height="134" viewBox="0 0 134 134" fill="none" xmlns="http://www.w3.org/2000/svg">
<path d="M39.5557 94.5166L64.0723 94.4333L117.583 41.4333C119.683 39.3333 120.839 36.5444 120.839 33.5778C120.839 30.6111 119.683 27.8222 117.583 25.7222L108.772 16.9111C104.572 12.7111 97.2446 12.7333 93.0779 16.8944L39.5557 69.9055V94.5166V94.5166ZM100.917 24.7666L109.745 33.5611L100.872 42.35L92.0612 33.5444L100.917 24.7666ZM50.6668 74.5389L84.1668 41.3555L92.9779 50.1666L59.4834 83.3389L50.6668 83.3666V74.5389Z" fill="#435AD5"/>
<path d="M28.4451 116.667H106.223C112.351 116.667 117.334 111.683 117.334 105.556V57.4001L106.223 68.5112V105.556H45.9895C45.8451 105.556 45.6951 105.611 45.5507 105.611C45.3673 105.611 45.184 105.561 44.9951 105.556H28.4451V27.7779H66.484L77.5951 16.6667H28.4451C22.3173 16.6667 17.334 21.6501 17.334 27.7779V105.556C17.334 111.683 22.3173 116.667 28.4451 116.667Z" fill="#435AD5"/>
</svg>
