<svg width="99" height="100" viewBox="0 0 99 100" fill="none" xmlns="http://www.w3.org/2000/svg">
<g clip-path="url(#clip0)">
<path d="M26.8589 51.9285H38.0029C39.0615 51.9285 39.9209 51.0473 39.9209 49.9601C39.9209 48.8729 39.0615 47.9917 38.0029 47.9917H26.8589C25.7996 47.9917 24.9409 48.8729 24.9409 49.9601C24.9409 51.0473 25.7996 51.9285 26.8589 51.9285Z" fill="#3E3D4A" />
<path d="M26.8589 73.5374H38.0029C39.0615 73.5374 39.9209 72.6562 39.9209 71.569C39.9209 70.4818 39.0615 69.6006 38.0029 69.6006H26.8589C25.7996 69.6006 24.9409 70.4818 24.9409 71.569C24.9409 72.6562 25.7996 73.5374 26.8589 73.5374Z" fill="#3E3D4A" />
<path d="M41.9141 5.57324H36.3526C35.2932 5.57324 34.4346 6.4552 34.4346 7.54163C34.4346 8.62881 35.2932 9.51001 36.3526 9.51001H41.9141C42.9735 9.51001 43.8322 8.62881 43.8322 7.54163C43.8322 6.4552 42.9735 5.57324 41.9141 5.57324Z" fill="#3E3D4A" />
<path d="M37.2148 92.924C37.5166 93.69 38.2348 94.1546 38.9923 94.1546C39.2324 94.1546 39.4763 94.1081 39.712 94.0097C40.694 93.6015 41.1676 92.454 40.7698 91.4469L40.7364 91.3622C40.3394 90.3552 39.2206 89.8692 38.2392 90.2773C37.2572 90.6848 36.7836 91.833 37.1813 92.8401L37.2148 92.924Z" fill="#3E3D4A" />
<path d="M44.1005 72.3497C44.4024 73.1157 45.1205 73.5796 45.8788 73.5796C46.1182 73.5796 46.362 73.533 46.5977 73.4354C47.5798 73.0272 48.0533 71.8797 47.6556 70.8719L47.6229 70.788C47.2251 69.7801 46.1063 69.2949 45.125 69.7023C44.1429 70.1105 43.6694 71.2579 44.0671 72.2658L44.1005 72.3497Z" fill="#3E3D4A" />
<path d="M87.1631 77.5931L79.4805 67.4689C81.319 64.7368 82.4936 61.5699 82.8839 58.1794C83.5151 52.7038 82.0297 47.3037 78.7029 42.974C75.7843 39.1753 71.8159 36.7187 67.5494 35.6849V3.93905C67.5494 1.76696 65.9034 0 63.8806 0H14.0706C12.0478 0 10.4019 1.76696 10.4019 3.93905V96.0608C10.4019 98.2328 12.0478 99.9998 14.0706 99.9998H63.8806C65.9034 99.9998 67.5494 98.2328 67.5494 96.0608V75.8307C68.1255 75.6911 68.6972 75.5293 69.263 75.3363L77.1507 85.681C78.4063 87.3144 80.2745 88.1674 82.1606 88.1674C83.5411 88.1674 84.9321 87.7104 86.0985 86.7659C87.4344 85.6848 88.2804 84.1345 88.4804 82.3996C88.6804 80.6654 88.2098 78.9549 87.1631 77.5931ZM75.6906 45.4116C78.3833 48.9158 79.5846 53.2859 79.0746 57.717C78.5639 62.1489 76.4028 66.1109 72.9882 68.8735C65.9406 74.5779 55.6844 73.3336 50.1266 66.1002C44.5687 58.8668 45.7813 48.342 52.8296 42.6383C55.81 40.2267 59.3621 39.0571 62.8918 39.0571C67.7092 39.0571 72.4835 41.2368 75.6906 45.4116ZM56.1275 36.3273C55.2681 36.6424 54.4228 37.02 53.5991 37.4618V26.6998C53.5991 25.6134 52.7404 24.7322 51.6811 24.7322H26.2977C25.2383 24.7322 24.3797 25.6134 24.3797 26.6998V42.6772C24.3797 43.7644 25.2383 44.6456 26.2977 44.6456H45.9612C43.9814 47.8324 42.9146 51.4907 42.8128 55.1947H26.859C25.7996 55.1947 24.9409 56.0759 24.9409 57.1631C24.9409 58.2503 25.7996 59.1315 26.859 59.1315H43.0715C43.2477 60.234 43.5131 61.3265 43.867 62.3976H31.6139C31.6035 62.3976 31.5938 62.3946 31.5842 62.3946C31.5737 62.3946 31.5641 62.3976 31.5537 62.3976H26.859C25.7996 62.3976 24.9409 63.2788 24.9409 64.366C24.9409 65.4532 25.7996 66.3344 26.859 66.3344H45.6422C46.0824 67.0905 46.5693 67.8282 47.1142 68.5378C49.5385 71.6925 52.6869 73.9195 56.1282 75.1784V76.7279H22.0862V22.7447H56.1275V36.3273ZM49.7638 40.1359C49.5526 40.3228 49.3482 40.5151 49.146 40.7096H28.2157V28.6682H49.7638V40.1359ZM14.2379 3.93676H63.7133V11.1473H14.2379V3.93676ZM63.7133 96.063H14.2379V88.2239H63.7133V96.063ZM63.7133 84.2871H14.2379V15.084H63.7133V35.1447C62.4636 35.0921 61.2087 35.1592 59.9635 35.3462V20.7763C59.9635 19.6891 59.1049 18.8079 58.0455 18.8079H20.1682C19.1088 18.8079 18.2502 19.6891 18.2502 20.7763V78.6955C18.2502 79.7827 19.1088 80.6639 20.1682 80.6639H58.0455C59.1049 80.6639 59.9635 79.7827 59.9635 78.6955V76.1588C60.9456 76.3075 61.9366 76.3899 62.9298 76.3899C63.1907 76.3899 63.4516 76.3678 63.7133 76.3571V84.2871ZM84.6711 81.9373C84.5916 82.6277 84.2548 83.2449 83.7232 83.6745C83.1917 84.1055 82.5278 84.297 81.8565 84.2154C81.1837 84.1338 80.5823 83.7889 80.1675 83.2487L72.8678 73.6754C73.7265 73.1726 74.5643 72.6119 75.3635 71.9649C75.9196 71.5148 76.4466 71.0379 76.9477 70.5382L84.1448 80.0215C84.5633 80.567 84.7507 81.2476 84.6711 81.9373Z" fill="#3E3D4A" />
<path d="M56.5698 52.6246C56.5698 53.7118 57.4292 54.593 58.4879 54.593H67.5665C68.6259 54.593 69.4846 53.7118 69.4846 52.6246C69.4846 51.5374 68.6259 50.6562 67.5665 50.6562H58.4879C57.4285 50.6562 56.5698 51.5374 56.5698 52.6246Z" fill="#3E3D4A" />
<path d="M62.909 57.3486H58.4879C57.4292 57.3486 56.5698 58.2298 56.5698 59.317C56.5698 60.4034 57.4292 61.2854 58.4879 61.2854H62.909C63.9676 61.2854 64.827 60.4034 64.827 59.317C64.827 58.2298 63.9676 57.3486 62.909 57.3486Z" fill="#3E3D4A" />
</g>
<defs>
<clipPath id="clip0">
<rect x="0.695801" width="97.4419" height="100" fill="#3E3D4A"/>
</clipPath>
</defs>
</svg>
