<svg width="100" height="100" viewBox="0 0 100 100" fill="none" xmlns="http://www.w3.org/2000/svg">
<g clip-path="url(#clip0)">
<path d="M13.3675 75.3093V72.8229C13.3675 71.7746 13.4384 70.7202 13.5788 69.6895C13.7268 68.6007 12.9639 67.5982 11.8759 67.451C10.7864 67.303 9.7847 68.0652 9.63745 69.1539C9.47342 70.3616 9.39026 71.596 9.39026 72.8229V75.3085C4.06265 76.2538 0 80.9077 0 86.5024C0 92.7768 5.10483 97.8816 11.3792 97.8816C17.6529 97.8816 22.7577 92.7768 22.7577 86.5024C22.7577 80.9077 18.6958 76.2538 13.3675 75.3093ZM11.3792 93.9036C7.29752 93.9036 3.97797 90.5833 3.97797 86.5024C3.97797 82.4214 7.29828 79.1011 11.3792 79.1011C15.4602 79.1011 18.7798 82.4214 18.7798 86.5024C18.7798 90.5833 15.4602 93.9036 11.3792 93.9036Z" fill="#3E3D4A" />
<path d="M99.9998 13.3324C99.9998 7.05795 94.895 1.95312 88.6206 1.95312C82.347 1.95312 77.2421 7.05795 77.2421 13.3324C77.2421 18.9003 81.2651 23.539 86.5553 24.514C85.6375 36.3953 75.6834 45.784 63.5703 45.784H36.4295C29.0068 45.784 21.8306 48.8838 16.7403 54.29C15.9873 55.0896 16.0246 56.3484 16.825 57.1014C17.2087 57.4631 17.6985 57.6424 18.1876 57.6424C18.7171 57.6424 19.245 57.4326 19.6364 57.0168C24.0416 52.3384 30.0055 49.762 36.4295 49.762H63.5703C77.87 49.762 89.6048 38.6024 90.5424 24.5361C95.9029 23.6183 99.9998 18.9507 99.9998 13.3324ZM88.6206 20.7336C84.5396 20.7336 81.2193 17.4133 81.2193 13.3324C81.2193 9.25064 84.5396 5.93109 88.6206 5.93109C92.7016 5.93109 96.0219 9.25064 96.0219 13.3324C96.0219 17.4133 92.7016 20.7336 88.6206 20.7336Z" fill="#3E3D4A" />
<path d="M8.07762 44.5C8.46672 44.8884 8.9756 45.0829 9.48448 45.0829C9.99336 45.0829 10.5022 44.8884 10.8906 44.5L14.5939 40.7975L18.2964 44.5C18.6855 44.8884 19.1944 45.0829 19.7033 45.0829C20.2122 45.0829 20.7211 44.8884 21.1094 44.5C21.8861 43.7233 21.8861 42.4645 21.1094 41.6871L17.4061 37.9845L21.1094 34.2812C21.8861 33.5045 21.8861 32.2449 21.1094 31.4682C20.3327 30.6916 19.0731 30.6916 18.2964 31.4682L14.5939 35.1716L10.8906 31.4682C10.1139 30.6923 8.85506 30.6923 8.07762 31.4682C7.30095 32.2449 7.30095 33.5045 8.07762 34.2812L11.7809 37.9845L8.07762 41.6878C7.30095 42.4645 7.30095 43.7233 8.07762 44.5Z" fill="#3E3D4A" />
<path d="M39.7231 39.8986C40.1115 40.2862 40.6203 40.4808 41.1292 40.4808C41.6381 40.4808 42.1478 40.2862 42.5361 39.8986L46.2386 36.1953L49.9419 39.8986C50.331 40.2862 50.8399 40.4808 51.3488 40.4808C51.8577 40.4808 52.3666 40.2862 52.7549 39.8986C53.5316 39.122 53.5316 37.8624 52.7549 37.0857L49.0516 33.3824L52.7549 29.6791C53.5316 28.9024 53.5316 27.6435 52.7549 26.8661C51.9782 26.0902 50.7186 26.0902 49.9419 26.8661L46.2386 30.5694L42.5361 26.8661C41.7594 26.0902 40.4998 26.0902 39.7231 26.8661C38.9465 27.6428 38.9465 28.9024 39.7231 29.6791L43.4264 33.3824L39.7231 37.0857C38.9465 37.8624 38.9465 39.122 39.7231 39.8986Z" fill="#3E3D4A" />
<path d="M57.2091 20.8503C57.5974 21.2386 58.1071 21.4332 58.6159 21.4332C59.1248 21.4332 59.6337 21.2386 60.022 20.8503L63.7253 17.1478L67.4286 20.8503C67.817 21.2386 68.3259 21.4332 68.8347 21.4332C69.3436 21.4332 69.8533 21.2386 70.2408 20.8503C71.0175 20.0736 71.0175 18.8148 70.2408 18.0374L66.5383 14.3348L70.2408 10.6315C71.0175 9.85483 71.0183 8.59522 70.2408 7.81855C69.4642 7.04264 68.2053 7.04187 67.4286 7.81855L63.7253 11.5219L60.022 7.81855C59.2454 7.04264 57.9865 7.04264 57.2098 7.81855C56.4332 8.59522 56.4332 9.85483 57.2098 10.6315L60.9124 14.3348L57.2098 18.0374C56.4332 18.8148 56.4324 20.0736 57.2091 20.8503Z" fill="#3E3D4A" />
<path d="M42.9287 59.6874C42.152 58.9115 40.8924 58.9115 40.1158 59.6874L36.4132 63.3907L32.7099 59.6874C31.9332 58.9115 30.6736 58.9115 29.897 59.6874C29.1203 60.4641 29.1203 61.7237 29.897 62.5004L33.6003 66.2037L29.897 69.907C29.1203 70.6837 29.1203 71.9425 29.897 72.7192C30.2853 73.1075 30.7942 73.3021 31.3038 73.3021C31.8127 73.3021 32.3216 73.1075 32.7099 72.7192L36.4132 69.0166L40.1158 72.7192C40.5041 73.1075 41.013 73.3021 41.5226 73.3021C42.0315 73.3021 42.5404 73.1075 42.9287 72.7192C43.7054 71.9425 43.7054 70.6837 42.9287 69.907L39.2254 66.2037L42.9287 62.5004C43.7054 61.7237 43.7054 60.4648 42.9287 59.6874Z" fill="#3E3D4A" />
<path d="M85.7471 54.1431C84.9704 53.3664 83.7108 53.3664 82.9341 54.1431L79.2308 57.8464L75.5283 54.1431C74.7516 53.3671 73.492 53.3664 72.7153 54.1431C71.9386 54.9197 71.9386 56.1793 72.7153 56.956L76.4186 60.6593L72.7153 64.3619C71.9386 65.1385 71.9386 66.3982 72.7153 67.1748C73.1037 67.5632 73.6125 67.7577 74.1214 67.7577C74.6311 67.7577 75.1399 67.5632 75.5283 67.1748L79.2308 63.4723L82.9341 67.1748C83.3225 67.5632 83.8313 67.7577 84.3402 67.7577C84.8499 67.7577 85.3587 67.5632 85.7471 67.1748C86.5238 66.3982 86.5238 65.1393 85.7471 64.3619L82.0438 60.6593L85.7471 56.956C86.5238 56.1793 86.5238 54.9197 85.7471 54.1431Z" fill="#3E3D4A" />
<path d="M64.5693 74.977C63.7927 74.2004 62.5331 74.2004 61.7564 74.977L58.0531 78.6803L54.3505 74.977C53.5739 74.2004 52.3143 74.2004 51.5376 74.977C50.7609 75.7537 50.7609 77.0133 51.5376 77.79L55.2409 81.4933L51.5376 85.1958C50.7609 85.9725 50.7609 87.2321 51.5376 88.0088C51.9259 88.3971 52.4348 88.5917 52.9437 88.5917C53.4526 88.5917 53.9622 88.3971 54.3498 88.0088L58.0531 84.3055L61.7564 88.0088C62.1447 88.3971 62.6536 88.5917 63.1625 88.5917C63.6714 88.5917 64.181 88.3971 64.5686 88.0088C65.3453 87.2321 65.3453 85.9725 64.5686 85.1958L60.866 81.4933L64.5686 77.79C65.346 77.0133 65.346 75.7537 64.5693 74.977Z" fill="#3E3D4A" />
<path d="M12.9134 60.0125C11.8957 60.4245 11.4036 61.5842 11.8156 62.6027L11.8453 62.6759C12.1581 63.4495 12.9027 63.9195 13.6893 63.9195C13.9381 63.9195 14.1906 63.873 14.4347 63.7738C15.4533 63.3618 15.9446 62.2029 15.5334 61.1844L15.5036 61.1111C15.0916 60.0926 13.932 59.6013 12.9134 60.0125Z" fill="#3E3D4A" />
</g>
<defs>
<clipPath id="clip0">
<rect width="100" height="100" fill="white"/>
</clipPath>
</defs>
</svg>
