<svg width="100" height="100" viewBox="0 0 100 100" fill="none" xmlns="http://www.w3.org/2000/svg">
<g clip-path="url(#clip0)">
<path d="M71.4599 34.303C71.0509 33.2906 69.8981 32.8016 68.8857 33.2113C67.8733 33.621 67.385 34.773 67.794 35.7854L67.8207 35.851C68.1319 36.6209 68.8728 37.0878 69.6548 37.0878C69.9012 37.0878 70.1522 37.0412 70.3948 36.9428C71.4072 36.5339 71.8963 35.3811 71.4866 34.3687L71.4599 34.303Z" fill="white" fill-opacity="0.87"/>
<path d="M98.0225 0.585938H80.5397C79.4472 0.585938 78.5622 1.47095 78.5622 2.56348V12.677H60.7185V2.56348C60.7185 1.47095 59.8335 0.585938 58.7418 0.585938H41.2582C40.1665 0.585938 39.2815 1.47095 39.2815 2.56348V12.677H21.4378V2.56348C21.4378 1.47095 20.5528 0.585938 19.4603 0.585938H1.97754C0.88501 0.585938 0 1.47095 0 2.56348V26.7464C0 27.8381 0.88501 28.7231 1.97754 28.7231H19.4603C20.5528 28.7231 21.4378 27.8381 21.4378 26.7464V16.6313H28.3821V50.4951C28.3821 51.5869 29.2671 52.4719 30.3596 52.4719H39.2815V62.1323C39.2815 63.224 40.1665 64.1098 41.2582 64.1098H58.7418C59.8335 64.1098 60.7185 63.224 60.7185 62.1323V52.018H67.6636V85.4279C67.6636 86.5196 68.5486 87.4046 69.6404 87.4046H78.5622V97.5189C78.5622 98.6107 79.4472 99.4965 80.5397 99.4965H98.0225C99.115 99.4965 100 98.6107 100 97.5189V73.336C100 72.2443 99.115 71.3593 98.0225 71.3593H80.5397C79.4472 71.3593 78.5622 72.2443 78.5622 73.336V83.4503H71.6179V52.018H78.5622V62.1323C78.5622 63.224 79.4472 64.1098 80.5397 64.1098H98.0225C99.115 64.1098 100 63.224 100 62.1323V37.9494C100 36.8576 99.115 35.9726 98.0225 35.9726H80.5397C79.4472 35.9726 78.5622 36.8576 78.5622 37.9494V48.0637H71.6179V43.013C71.6179 41.9212 70.7321 41.0362 69.6404 41.0362C68.5486 41.0362 67.6636 41.9212 67.6636 43.013V48.0637H60.7185V37.9494C60.7185 36.8576 59.8335 35.9726 58.7418 35.9726H41.2582C40.1665 35.9726 39.2815 36.8576 39.2815 37.9494V48.5176H32.3364V16.6313H39.2815V26.7464C39.2815 27.8381 40.1665 28.7231 41.2582 28.7231H58.7418C59.8335 28.7231 60.7185 27.8381 60.7185 26.7464V16.6313H67.6636V27.1416C67.6636 28.2333 68.5486 29.1183 69.6404 29.1183C70.7321 29.1183 71.6179 28.2333 71.6179 27.1416V16.6313H78.5622V26.7464C78.5622 27.8381 79.4472 28.7231 80.5397 28.7231H98.0225C99.115 28.7231 100 27.8381 100 26.7464V2.56348C100 1.47095 99.115 0.585938 98.0225 0.585938V0.585938ZM17.4835 24.7688H3.95432V4.54025H17.4835V24.7688ZM96.0457 87.2643H82.5165V83.2108H96.0457V87.2643ZM96.0457 95.5421H82.5165V91.2186H96.0457V95.5421ZM82.5165 75.3136H96.0457V79.2564H82.5165V75.3136ZM96.0457 51.8776H82.5165V47.8249H96.0457V51.8776ZM96.0457 60.1555H82.5165V55.8319H96.0457V60.1555ZM82.5165 39.9269H96.0457V43.8698H82.5165V39.9269ZM43.2358 39.9269H56.7642V60.1555H43.2358V39.9269ZM56.7642 24.7688H43.2358V4.54025H56.7642V24.7688ZM82.5165 12.4382H96.0457V16.4909H82.5165V12.4382ZM82.5165 4.54025H96.0457V8.48389H82.5165V4.54025ZM96.0457 24.7688H82.5165V20.4453H96.0457V24.7688Z" fill="white" fill-opacity="0.87"/>
</g>
<defs>
<clipPath id="clip0">
<rect width="100" height="100" fill="white"/>
</clipPath>
</defs>
</svg>
