<svg width="20" height="20" viewBox="0 0 20 20" fill="none" xmlns="http://www.w3.org/2000/svg">
<path d="M5 3C5 4.062 4.29 4.976 2.999 4.976C1.784 4.976 1 4.114 1 3.052C1 1.962 1.76 1 3 1C4.24 1 4.976 1.91 5 3ZM1 19V6H5V19H1Z" fill="white"/>
<path d="M6.99995 10.4438C6.99995 8.89882 6.94895 7.60782 6.89795 6.49282H10.4919L10.6699 8.21582H10.746C11.252 7.40482 12.4919 6.21582 14.568 6.21582C17.1 6.21582 19 7.91082 19 11.5578V18.9998H15V12.1388C15 10.5448 14.393 9.32882 13 9.32882C11.938 9.32882 11.4059 10.1888 11.1269 10.8978C11.0249 11.1518 10.9999 11.5058 10.9999 11.8608V18.9998H6.99995V10.4438Z" fill="white"/>
</svg>
