<svg width="20" height="20" viewBox="0 0 20 20" fill="none" xmlns="http://www.w3.org/2000/svg">
<path d="M17.3158 6.24642C17.3238 6.40842 17.3268 6.57242 17.3268 6.73442C17.3268 11.7244 13.5298 17.4764 6.5868 17.4764C4.4538 17.4764 2.4708 16.8514 0.799805 15.7794C1.78818 15.8989 2.79042 15.8225 3.74924 15.5545C4.70806 15.2865 5.60467 14.8321 6.3878 14.2174C5.60022 14.2025 4.83698 13.9419 4.20478 13.472C3.57259 13.002 3.10305 12.3463 2.8618 11.5964C3.42787 11.7023 4.01045 11.6801 4.5668 11.5314C3.71242 11.3582 2.9442 10.8949 2.39235 10.22C1.8405 9.54511 1.53895 8.70019 1.5388 7.82842V7.78142C2.063 8.07302 2.64927 8.23519 3.2488 8.25442C2.44868 7.721 1.88228 6.90234 1.66522 5.96552C1.44816 5.02871 1.5968 4.04437 2.0808 3.21342C3.02859 4.37988 4.21116 5.33392 5.55168 6.01357C6.89221 6.69322 8.36071 7.08328 9.8618 7.15842C9.79686 6.87604 9.76432 6.58717 9.7648 6.29742C9.7648 5.80186 9.86243 5.31115 10.0521 4.85332C10.2418 4.3955 10.5198 3.97952 10.8702 3.62915C11.2207 3.27878 11.6368 3.00089 12.0946 2.81133C12.5525 2.62178 13.0432 2.52429 13.5388 2.52442C14.0553 2.52358 14.5664 2.62886 15.0405 2.83373C15.5146 3.03861 15.9415 3.33871 16.2948 3.71542C17.1399 3.54812 17.9505 3.23837 18.6918 2.79942C18.4099 3.67362 17.8199 4.41564 17.0318 4.88742C17.7801 4.79871 18.5108 4.59849 19.1998 4.29342C18.6937 5.05186 18.0556 5.71333 17.3158 6.24642V6.24642Z" fill="white"/>
</svg>
