<svg width="45" height="55" viewBox="0 0 45 55" fill="none" xmlns="http://www.w3.org/2000/svg">
<path d="M39.1774 13.4792V12.0693C39.1774 8.8222 37.9633 5.79181 35.7605 3.53732C33.56 1.28665 30.6154 0.046875 27.468 0.046875H17.6387C11.1822 0.046875 5.9293 5.32489 5.9293 11.8122V13.4792C2.86546 14.3428 0.611816 17.1726 0.611816 20.5226C0.611816 23.875 2.8685 26.7055 5.93461 27.5669C6.0356 32.1422 8.01134 36.4643 11.344 39.5275L8.86177 42.5746C7.58233 44.1463 7.15483 46.249 7.71825 48.2013C8.27634 50.1369 9.74258 51.6696 11.634 52.3006L11.6993 52.322C15.2005 53.4824 18.862 54.0706 22.5818 54.0706C26.5508 54.0706 30.4445 53.4023 34.1546 52.0847C36.065 51.4064 37.5153 49.8256 38.0331 47.8565C38.551 45.8858 38.0673 43.79 36.7385 42.2504L34.1128 39.207C37.267 36.1568 39.078 32.0278 39.1721 27.5669C42.2382 26.7055 44.4949 23.8742 44.4949 20.5219C44.4949 17.1726 42.2413 14.3428 39.1774 13.4792ZM17.6387 3.99127H27.4688C31.5395 3.99127 34.7878 7.07889 35.2062 11.1698L33.6329 9.9689C31.0398 7.99136 27.5197 7.93948 24.8704 9.83997L24.2759 10.2672C23.0549 11.1438 21.4224 11.1324 20.2135 10.239C17.3464 8.12106 13.4161 8.35223 10.8163 10.7738L9.86179 11.4917C10.0288 7.32761 13.4534 3.99127 17.6387 3.99127ZM4.53748 20.5226C4.53748 19.3996 5.08646 18.4032 5.9293 17.7898V23.2547C5.08646 22.6413 4.53748 21.6449 4.53748 20.5226ZM34.2373 46.8486C34.049 47.5658 33.5418 48.1189 32.8463 48.3661C29.5577 49.5342 26.1043 50.1262 22.5818 50.1262C19.2803 50.1262 16.0327 49.6051 12.9378 48.579L12.8755 48.5584C12.1959 48.3318 11.6902 47.8008 11.4882 47.1027C11.2817 46.3871 11.4321 45.6478 11.8998 45.0725L14.5384 41.8338C18.4762 44.0212 23.2561 44.4942 27.547 43.1377C28.7452 42.7593 29.9009 42.2435 30.9829 41.6011L33.7726 44.8345C34.2571 45.396 34.4264 46.1299 34.2373 46.8486C34.4264 46.1299 34.049 47.5658 34.2373 46.8486ZM35.2518 27.1999C35.2518 31.258 33.3945 34.9826 30.1575 37.4195C27.9699 39.0659 25.285 39.9593 22.553 39.9593C19.9212 39.9593 17.3934 39.1536 15.2446 37.63C11.8702 35.2375 9.85496 31.3388 9.85496 27.1999V16.4234L13.2574 13.8645C13.3212 13.8164 13.3827 13.7645 13.4404 13.7088C14.6576 12.5347 16.5278 12.4118 17.8878 13.4166C20.4679 15.3224 23.9524 15.3461 26.5584 13.4761L27.1522 13.0497C28.3739 12.173 30.0634 12.1982 31.2585 13.1099L32.5349 14.0842L35.251 16.1579V27.1999H35.2518ZM39.1774 23.2547V17.7898C40.0195 18.4032 40.5693 19.3996 40.5693 20.5226C40.5693 21.6457 40.0195 22.6413 39.1774 23.2547Z" fill="white" fill-opacity="0.87"/>
</svg>
