<svg width="101" height="100" viewBox="0 0 101 100" fill="none" xmlns="http://www.w3.org/2000/svg">
<path d="M67.1774 36.4792V35.0693C67.1774 31.8222 65.9633 28.7918 63.7605 26.5373C61.56 24.2867 58.6154 23.0469 55.468 23.0469H45.6387C39.1822 23.0469 33.9293 28.3249 33.9293 34.8122V36.4792C30.8655 37.3428 28.6118 40.1726 28.6118 43.5226C28.6118 46.875 30.8685 49.7055 33.9346 50.5669C34.0356 55.1422 36.0113 59.4643 39.344 62.5275L36.8618 65.5746C35.5823 67.1463 35.1548 69.249 35.7182 71.2013C36.2763 73.1369 37.7426 74.6696 39.634 75.3006L39.6993 75.322C43.2005 76.4824 46.862 77.0706 50.5818 77.0706C54.5508 77.0706 58.4445 76.4023 62.1546 75.0847C64.065 74.4064 65.5153 72.8256 66.0331 70.8565C66.551 68.8858 66.0673 66.79 64.7385 65.2504L62.1128 62.207C65.267 59.1568 67.078 55.0278 67.1721 50.5669C70.2382 49.7055 72.4949 46.8742 72.4949 43.5219C72.4949 40.1726 70.2413 37.3428 67.1774 36.4792ZM45.6387 26.9913H55.4688C59.5395 26.9913 62.7878 30.0789 63.2062 34.1698L61.6329 32.9689C59.0398 30.9914 55.5197 30.9395 52.8704 32.84L52.2759 33.2672C51.0549 34.1438 49.4224 34.1324 48.2135 33.239C45.3464 31.1211 41.4161 31.3522 38.8163 33.7738L37.8618 34.4917C38.0288 30.3276 41.4534 26.9913 45.6387 26.9913ZM32.5375 43.5226C32.5375 42.3996 33.0865 41.4032 33.9293 40.7898V46.2547C33.0865 45.6413 32.5375 44.6449 32.5375 43.5226ZM62.2373 69.8486C62.049 70.5658 61.5418 71.1189 60.8463 71.3661C57.5577 72.5342 54.1043 73.1262 50.5818 73.1262C47.2803 73.1262 44.0327 72.6051 40.9378 71.579L40.8755 71.5584C40.1959 71.3318 39.6902 70.8008 39.4882 70.1027C39.2817 69.3871 39.4321 68.6478 39.8998 68.0725L42.5384 64.8338C46.4762 67.0212 51.2561 67.4942 55.547 66.1377C56.7452 65.7593 57.9009 65.2435 58.9829 64.6011L61.7726 67.8345C62.2571 68.396 62.4264 69.1299 62.2373 69.8486C62.4264 69.1299 62.049 70.5658 62.2373 69.8486ZM63.2518 50.1999C63.2518 54.258 61.3945 57.9826 58.1575 60.4195C55.9699 62.0659 53.285 62.9593 50.553 62.9593C47.9212 62.9593 45.3934 62.1536 43.2446 60.63C39.8702 58.2375 37.855 54.3388 37.855 50.1999V39.4234L41.2574 36.8645C41.3212 36.8164 41.3827 36.7645 41.4404 36.7088C42.6576 35.5347 44.5278 35.4118 45.8878 36.4166C48.4679 38.3224 51.9524 38.3461 54.5584 36.4761L55.1522 36.0497C56.3739 35.173 58.0634 35.1982 59.2585 36.1099L60.5349 37.0842L63.251 39.1579V50.1999H63.2518ZM67.1774 46.2547V40.7898C68.0195 41.4032 68.5693 42.3996 68.5693 43.5226C68.5693 44.6457 68.0195 45.6413 67.1774 46.2547Z" fill="white" fill-opacity="0.87"/>
<path d="M53.4705 52.8387C53.4622 52.8463 53.4546 52.8532 53.4462 52.86C53.4348 52.8707 53.4242 52.8799 53.4128 52.8898L53.412 52.8906C52.9018 53.3338 52.3141 53.6398 51.6952 53.8069C50.4203 54.1502 49.0179 53.903 47.9131 53.0493C47.907 53.0439 47.9009 53.0393 47.8949 53.0348C47.8949 53.0348 47.8949 53.0348 47.8949 53.034L47.5311 52.7502C46.6754 52.0819 45.4423 52.2367 44.7771 53.0966C44.4984 53.4567 44.3633 53.8839 44.3633 54.3073C44.364 54.8948 44.6245 55.4762 45.1218 55.8645L45.4848 56.1483C46.9852 57.3209 48.7772 57.9015 50.5654 57.9015C52.5472 57.9015 54.5229 57.1882 56.0909 55.776C56.5237 55.3861 56.7439 54.8475 56.7439 54.3058C56.7439 53.8374 56.5784 53.3674 56.2428 52.9913C55.5184 52.1803 54.2777 52.1124 53.4705 52.8387Z" fill="white" fill-opacity="0.87"/>
<path d="M47.8862 43.9273C47.8862 42.8378 47.0077 41.9551 45.9234 41.9551H43.2392C42.1557 41.9551 41.2764 42.8378 41.2764 43.9273C41.2764 45.016 42.1557 45.8995 43.2392 45.8995H45.9234C47.0077 45.8995 47.8862 45.016 47.8862 43.9273Z" fill="white" fill-opacity="0.87"/>
<path d="M57.0616 41.9551H54.3774C53.2938 41.9551 52.4146 42.8378 52.4146 43.9273C52.4146 45.016 53.2938 45.8995 54.3774 45.8995H57.0616C58.1459 45.8995 59.0244 45.016 59.0244 43.9273C59.0244 42.8378 58.1459 41.9551 57.0616 41.9551Z" fill="white" fill-opacity="0.87"/>
</svg>
